<mxfile host="app.diagrams.net" modified="2022-09-24T00:53:07.124Z" agent="5.0 (Macintosh; Intel Mac OS X 10_15_7) AppleWebKit/537.36 (KHTML, like Gecko) Chrome/105.0.0.0 Safari/537.36" etag="CQFflQSAXdwykHHpTWlz" version="20.3.3" type="github" pages="2">
  <diagram id="BcMjZCNKNNhOgxQlNWG2" name="Page-1">
    <mxGraphModel dx="3124" dy="1560" grid="1" gridSize="10" guides="1" tooltips="1" connect="1" arrows="1" fold="1" page="1" pageScale="1" pageWidth="827" pageHeight="1169" math="0" shadow="0">
      <root>
        <mxCell id="0" />
        <mxCell id="1" parent="0" />
        <mxCell id="b7NgIzZ4ozKnUG5l8xjc-46" value="offCampus" style="swimlane;fontStyle=1;align=center;verticalAlign=top;childLayout=stackLayout;horizontal=1;startSize=31;horizontalStack=0;resizeParent=1;resizeParentMax=0;resizeLast=0;collapsible=1;marginBottom=0;" parent="1" vertex="1">
          <mxGeometry x="380" y="228" width="210" height="150" as="geometry" />
        </mxCell>
        <mxCell id="b7NgIzZ4ozKnUG5l8xjc-47" value="-nameOfRestaurants:string&#xa;-time:int&#xa;-ratingFeature:int&#xa;" style="text;strokeColor=none;fillColor=none;align=left;verticalAlign=top;spacingLeft=4;spacingRight=4;overflow=hidden;rotatable=0;points=[[0,0.5],[1,0.5]];portConstraint=eastwest;" parent="b7NgIzZ4ozKnUG5l8xjc-46" vertex="1">
          <mxGeometry y="31" width="210" height="49" as="geometry" />
        </mxCell>
        <mxCell id="b7NgIzZ4ozKnUG5l8xjc-105" value="-searchBar:string" style="text;strokeColor=none;fillColor=none;align=left;verticalAlign=top;spacingLeft=4;spacingRight=4;overflow=hidden;rotatable=0;points=[[0,0.5],[1,0.5]];portConstraint=eastwest;" parent="b7NgIzZ4ozKnUG5l8xjc-46" vertex="1">
          <mxGeometry y="80" width="210" height="30" as="geometry" />
        </mxCell>
        <mxCell id="b7NgIzZ4ozKnUG5l8xjc-48" value="" style="line;strokeWidth=1;fillColor=none;align=left;verticalAlign=middle;spacingTop=-1;spacingLeft=3;spacingRight=3;rotatable=0;labelPosition=right;points=[];portConstraint=eastwest;strokeColor=inherit;" parent="b7NgIzZ4ozKnUG5l8xjc-46" vertex="1">
          <mxGeometry y="110" width="210" height="8" as="geometry" />
        </mxCell>
        <mxCell id="b7NgIzZ4ozKnUG5l8xjc-49" value="+viewMenu()" style="text;strokeColor=none;fillColor=none;align=left;verticalAlign=top;spacingLeft=4;spacingRight=4;overflow=hidden;rotatable=0;points=[[0,0.5],[1,0.5]];portConstraint=eastwest;" parent="b7NgIzZ4ozKnUG5l8xjc-46" vertex="1">
          <mxGeometry y="118" width="210" height="32" as="geometry" />
        </mxCell>
        <mxCell id="b7NgIzZ4ozKnUG5l8xjc-51" value="restarunt" style="swimlane;fontStyle=1;align=center;verticalAlign=top;childLayout=stackLayout;horizontal=1;startSize=26;horizontalStack=0;resizeParent=1;resizeParentMax=0;resizeLast=0;collapsible=1;marginBottom=0;" parent="1" vertex="1">
          <mxGeometry x="140" y="430" width="160" height="120" as="geometry" />
        </mxCell>
        <mxCell id="b7NgIzZ4ozKnUG5l8xjc-52" value="-menu:string&#xa;-price:int&#xa;-calories:int" style="text;strokeColor=none;fillColor=none;align=left;verticalAlign=top;spacingLeft=4;spacingRight=4;overflow=hidden;rotatable=0;points=[[0,0.5],[1,0.5]];portConstraint=eastwest;" parent="b7NgIzZ4ozKnUG5l8xjc-51" vertex="1">
          <mxGeometry y="26" width="160" height="54" as="geometry" />
        </mxCell>
        <mxCell id="b7NgIzZ4ozKnUG5l8xjc-53" value="" style="line;strokeWidth=1;fillColor=none;align=left;verticalAlign=middle;spacingTop=-1;spacingLeft=3;spacingRight=3;rotatable=0;labelPosition=right;points=[];portConstraint=eastwest;strokeColor=inherit;" parent="b7NgIzZ4ozKnUG5l8xjc-51" vertex="1">
          <mxGeometry y="80" width="160" height="8" as="geometry" />
        </mxCell>
        <mxCell id="b7NgIzZ4ozKnUG5l8xjc-54" value="-chooseMeal()" style="text;strokeColor=none;fillColor=none;align=left;verticalAlign=top;spacingLeft=4;spacingRight=4;overflow=hidden;rotatable=0;points=[[0,0.5],[1,0.5]];portConstraint=eastwest;" parent="b7NgIzZ4ozKnUG5l8xjc-51" vertex="1">
          <mxGeometry y="88" width="160" height="32" as="geometry" />
        </mxCell>
        <mxCell id="b7NgIzZ4ozKnUG5l8xjc-57" value="basket" style="swimlane;fontStyle=1;align=center;verticalAlign=top;childLayout=stackLayout;horizontal=1;startSize=26;horizontalStack=0;resizeParent=1;resizeParentMax=0;resizeLast=0;collapsible=1;marginBottom=0;" parent="1" vertex="1">
          <mxGeometry x="140" y="590" width="160" height="108" as="geometry" />
        </mxCell>
        <mxCell id="b7NgIzZ4ozKnUG5l8xjc-58" value="#price:int&#xa;#numberOfItem:int" style="text;strokeColor=none;fillColor=none;align=left;verticalAlign=top;spacingLeft=4;spacingRight=4;overflow=hidden;rotatable=0;points=[[0,0.5],[1,0.5]];portConstraint=eastwest;" parent="b7NgIzZ4ozKnUG5l8xjc-57" vertex="1">
          <mxGeometry y="26" width="160" height="34" as="geometry" />
        </mxCell>
        <mxCell id="b7NgIzZ4ozKnUG5l8xjc-59" value="" style="line;strokeWidth=1;fillColor=none;align=left;verticalAlign=middle;spacingTop=-1;spacingLeft=3;spacingRight=3;rotatable=0;labelPosition=right;points=[];portConstraint=eastwest;strokeColor=inherit;" parent="b7NgIzZ4ozKnUG5l8xjc-57" vertex="1">
          <mxGeometry y="60" width="160" height="8" as="geometry" />
        </mxCell>
        <mxCell id="b7NgIzZ4ozKnUG5l8xjc-60" value="-contiueShopping()&#xa;-checkout()" style="text;strokeColor=none;fillColor=none;align=left;verticalAlign=top;spacingLeft=4;spacingRight=4;overflow=hidden;rotatable=0;points=[[0,0.5],[1,0.5]];portConstraint=eastwest;" parent="b7NgIzZ4ozKnUG5l8xjc-57" vertex="1">
          <mxGeometry y="68" width="160" height="40" as="geometry" />
        </mxCell>
        <mxCell id="b7NgIzZ4ozKnUG5l8xjc-61" value="checkOut" style="swimlane;fontStyle=1;align=center;verticalAlign=top;childLayout=stackLayout;horizontal=1;startSize=26;horizontalStack=0;resizeParent=1;resizeParentMax=0;resizeLast=0;collapsible=1;marginBottom=0;" parent="1" vertex="1">
          <mxGeometry x="636.45" y="608" width="200" height="120" as="geometry" />
        </mxCell>
        <mxCell id="b7NgIzZ4ozKnUG5l8xjc-62" value="#total:int&#xa;#deliveryTime:int&#xa;#phoneNumber:int" style="text;strokeColor=none;fillColor=none;align=left;verticalAlign=top;spacingLeft=4;spacingRight=4;overflow=hidden;rotatable=0;points=[[0,0.5],[1,0.5]];portConstraint=eastwest;" parent="b7NgIzZ4ozKnUG5l8xjc-61" vertex="1">
          <mxGeometry y="26" width="200" height="54" as="geometry" />
        </mxCell>
        <mxCell id="b7NgIzZ4ozKnUG5l8xjc-63" value="" style="line;strokeWidth=1;fillColor=none;align=left;verticalAlign=middle;spacingTop=-1;spacingLeft=3;spacingRight=3;rotatable=0;labelPosition=right;points=[];portConstraint=eastwest;strokeColor=inherit;" parent="b7NgIzZ4ozKnUG5l8xjc-61" vertex="1">
          <mxGeometry y="80" width="200" height="8" as="geometry" />
        </mxCell>
        <mxCell id="b7NgIzZ4ozKnUG5l8xjc-64" value="-paymentMethod()" style="text;strokeColor=none;fillColor=none;align=left;verticalAlign=top;spacingLeft=4;spacingRight=4;overflow=hidden;rotatable=0;points=[[0,0.5],[1,0.5]];portConstraint=eastwest;" parent="b7NgIzZ4ozKnUG5l8xjc-61" vertex="1">
          <mxGeometry y="88" width="200" height="32" as="geometry" />
        </mxCell>
        <mxCell id="b7NgIzZ4ozKnUG5l8xjc-65" value="payment" style="swimlane;fontStyle=0;childLayout=stackLayout;horizontal=1;startSize=26;fillColor=none;horizontalStack=0;resizeParent=1;resizeParentMax=0;resizeLast=0;collapsible=1;marginBottom=0;" parent="1" vertex="1">
          <mxGeometry x="636.45" y="770" width="190" height="78" as="geometry">
            <mxRectangle x="360" y="940" width="180" height="110" as="alternateBounds" />
          </mxGeometry>
        </mxCell>
        <mxCell id="b7NgIzZ4ozKnUG5l8xjc-68" value="-orderName:string" style="text;strokeColor=none;fillColor=none;align=left;verticalAlign=top;spacingLeft=4;spacingRight=4;overflow=hidden;rotatable=0;points=[[0,0.5],[1,0.5]];portConstraint=eastwest;" parent="b7NgIzZ4ozKnUG5l8xjc-65" vertex="1">
          <mxGeometry y="26" width="190" height="26" as="geometry" />
        </mxCell>
        <mxCell id="b7NgIzZ4ozKnUG5l8xjc-72" value="#amountnumber" style="text;strokeColor=none;fillColor=none;align=left;verticalAlign=top;spacingLeft=4;spacingRight=4;overflow=hidden;rotatable=0;points=[[0,0.5],[1,0.5]];portConstraint=eastwest;" parent="b7NgIzZ4ozKnUG5l8xjc-65" vertex="1">
          <mxGeometry y="52" width="190" height="26" as="geometry" />
        </mxCell>
        <mxCell id="b7NgIzZ4ozKnUG5l8xjc-77" value="paypal" style="swimlane;fontStyle=1;align=center;verticalAlign=top;childLayout=stackLayout;horizontal=1;startSize=26;horizontalStack=0;resizeParent=1;resizeParentMax=0;resizeLast=0;collapsible=1;marginBottom=0;" parent="1" vertex="1">
          <mxGeometry x="30" y="890" width="160" height="104" as="geometry" />
        </mxCell>
        <mxCell id="b7NgIzZ4ozKnUG5l8xjc-78" value="-userName:string&#xa;-password:int" style="text;strokeColor=none;fillColor=none;align=left;verticalAlign=top;spacingLeft=4;spacingRight=4;overflow=hidden;rotatable=0;points=[[0,0.5],[1,0.5]];portConstraint=eastwest;" parent="b7NgIzZ4ozKnUG5l8xjc-77" vertex="1">
          <mxGeometry y="26" width="160" height="44" as="geometry" />
        </mxCell>
        <mxCell id="b7NgIzZ4ozKnUG5l8xjc-79" value="" style="line;strokeWidth=1;fillColor=none;align=left;verticalAlign=middle;spacingTop=-1;spacingLeft=3;spacingRight=3;rotatable=0;labelPosition=right;points=[];portConstraint=eastwest;strokeColor=inherit;" parent="b7NgIzZ4ozKnUG5l8xjc-77" vertex="1">
          <mxGeometry y="70" width="160" height="8" as="geometry" />
        </mxCell>
        <mxCell id="b7NgIzZ4ozKnUG5l8xjc-80" value="-login()" style="text;strokeColor=none;fillColor=none;align=left;verticalAlign=top;spacingLeft=4;spacingRight=4;overflow=hidden;rotatable=0;points=[[0,0.5],[1,0.5]];portConstraint=eastwest;" parent="b7NgIzZ4ozKnUG5l8xjc-77" vertex="1">
          <mxGeometry y="78" width="160" height="26" as="geometry" />
        </mxCell>
        <mxCell id="b7NgIzZ4ozKnUG5l8xjc-82" value="orderTrack" style="swimlane;fontStyle=1;align=center;verticalAlign=top;childLayout=stackLayout;horizontal=1;startSize=26;horizontalStack=0;resizeParent=1;resizeParentMax=0;resizeLast=0;collapsible=1;marginBottom=0;" parent="1" vertex="1">
          <mxGeometry x="220" y="890" width="160" height="112" as="geometry" />
        </mxCell>
        <mxCell id="b7NgIzZ4ozKnUG5l8xjc-83" value="-messageOfTrack" style="text;strokeColor=none;fillColor=none;align=left;verticalAlign=top;spacingLeft=4;spacingRight=4;overflow=hidden;rotatable=0;points=[[0,0.5],[1,0.5]];portConstraint=eastwest;" parent="b7NgIzZ4ozKnUG5l8xjc-82" vertex="1">
          <mxGeometry y="26" width="160" height="26" as="geometry" />
        </mxCell>
        <mxCell id="b7NgIzZ4ozKnUG5l8xjc-84" value="" style="line;strokeWidth=1;fillColor=none;align=left;verticalAlign=middle;spacingTop=-1;spacingLeft=3;spacingRight=3;rotatable=0;labelPosition=right;points=[];portConstraint=eastwest;strokeColor=inherit;" parent="b7NgIzZ4ozKnUG5l8xjc-82" vertex="1">
          <mxGeometry y="52" width="160" height="8" as="geometry" />
        </mxCell>
        <mxCell id="b7NgIzZ4ozKnUG5l8xjc-85" value="-trackOrder()" style="text;strokeColor=none;fillColor=none;align=left;verticalAlign=top;spacingLeft=4;spacingRight=4;overflow=hidden;rotatable=0;points=[[0,0.5],[1,0.5]];portConstraint=eastwest;" parent="b7NgIzZ4ozKnUG5l8xjc-82" vertex="1">
          <mxGeometry y="60" width="160" height="26" as="geometry" />
        </mxCell>
        <mxCell id="b7NgIzZ4ozKnUG5l8xjc-87" value="-backHome()" style="text;strokeColor=none;fillColor=none;align=left;verticalAlign=top;spacingLeft=4;spacingRight=4;overflow=hidden;rotatable=0;points=[[0,0.5],[1,0.5]];portConstraint=eastwest;" parent="b7NgIzZ4ozKnUG5l8xjc-82" vertex="1">
          <mxGeometry y="86" width="160" height="26" as="geometry" />
        </mxCell>
        <mxCell id="b7NgIzZ4ozKnUG5l8xjc-88" value="rating" style="swimlane;fontStyle=1;align=center;verticalAlign=top;childLayout=stackLayout;horizontal=1;startSize=26;horizontalStack=0;resizeParent=1;resizeParentMax=0;resizeLast=0;collapsible=1;marginBottom=0;" parent="1" vertex="1">
          <mxGeometry x="950" y="794" width="160" height="138" as="geometry" />
        </mxCell>
        <mxCell id="b7NgIzZ4ozKnUG5l8xjc-89" value="-deliveryTime:number" style="text;strokeColor=none;fillColor=none;align=left;verticalAlign=top;spacingLeft=4;spacingRight=4;overflow=hidden;rotatable=0;points=[[0,0.5],[1,0.5]];portConstraint=eastwest;" parent="b7NgIzZ4ozKnUG5l8xjc-88" vertex="1">
          <mxGeometry y="26" width="160" height="26" as="geometry" />
        </mxCell>
        <mxCell id="b7NgIzZ4ozKnUG5l8xjc-92" value="-deliveryDriver:number" style="text;strokeColor=none;fillColor=none;align=left;verticalAlign=top;spacingLeft=4;spacingRight=4;overflow=hidden;rotatable=0;points=[[0,0.5],[1,0.5]];portConstraint=eastwest;" parent="b7NgIzZ4ozKnUG5l8xjc-88" vertex="1">
          <mxGeometry y="52" width="160" height="26" as="geometry" />
        </mxCell>
        <mxCell id="b7NgIzZ4ozKnUG5l8xjc-93" value="-resturent:number" style="text;strokeColor=none;fillColor=none;align=left;verticalAlign=top;spacingLeft=4;spacingRight=4;overflow=hidden;rotatable=0;points=[[0,0.5],[1,0.5]];portConstraint=eastwest;" parent="b7NgIzZ4ozKnUG5l8xjc-88" vertex="1">
          <mxGeometry y="78" width="160" height="26" as="geometry" />
        </mxCell>
        <mxCell id="b7NgIzZ4ozKnUG5l8xjc-90" value="" style="line;strokeWidth=1;fillColor=none;align=left;verticalAlign=middle;spacingTop=-1;spacingLeft=3;spacingRight=3;rotatable=0;labelPosition=right;points=[];portConstraint=eastwest;strokeColor=inherit;" parent="b7NgIzZ4ozKnUG5l8xjc-88" vertex="1">
          <mxGeometry y="104" width="160" height="8" as="geometry" />
        </mxCell>
        <mxCell id="b7NgIzZ4ozKnUG5l8xjc-91" value="-submit()" style="text;strokeColor=none;fillColor=none;align=left;verticalAlign=top;spacingLeft=4;spacingRight=4;overflow=hidden;rotatable=0;points=[[0,0.5],[1,0.5]];portConstraint=eastwest;" parent="b7NgIzZ4ozKnUG5l8xjc-88" vertex="1">
          <mxGeometry y="112" width="160" height="26" as="geometry" />
        </mxCell>
        <mxCell id="b7NgIzZ4ozKnUG5l8xjc-96" value="order" style="swimlane;fontStyle=1;align=center;verticalAlign=top;childLayout=stackLayout;horizontal=1;startSize=26;horizontalStack=0;resizeParent=1;resizeParentMax=0;resizeLast=0;collapsible=1;marginBottom=0;" parent="1" vertex="1">
          <mxGeometry x="150" y="110" width="160" height="138" as="geometry" />
        </mxCell>
        <mxCell id="b7NgIzZ4ozKnUG5l8xjc-106" value="-orderType:string" style="text;strokeColor=none;fillColor=none;align=left;verticalAlign=top;spacingLeft=4;spacingRight=4;overflow=hidden;rotatable=0;points=[[0,0.5],[1,0.5]];portConstraint=eastwest;" parent="b7NgIzZ4ozKnUG5l8xjc-96" vertex="1">
          <mxGeometry y="26" width="160" height="26" as="geometry" />
        </mxCell>
        <mxCell id="b7NgIzZ4ozKnUG5l8xjc-115" value="-dailyOffer:string" style="text;strokeColor=none;fillColor=none;align=left;verticalAlign=top;spacingLeft=4;spacingRight=4;overflow=hidden;rotatable=0;points=[[0,0.5],[1,0.5]];portConstraint=eastwest;" parent="b7NgIzZ4ozKnUG5l8xjc-96" vertex="1">
          <mxGeometry y="52" width="160" height="26" as="geometry" />
        </mxCell>
        <mxCell id="b7NgIzZ4ozKnUG5l8xjc-98" value="" style="line;strokeWidth=1;fillColor=none;align=left;verticalAlign=middle;spacingTop=-1;spacingLeft=3;spacingRight=3;rotatable=0;labelPosition=right;points=[];portConstraint=eastwest;strokeColor=inherit;" parent="b7NgIzZ4ozKnUG5l8xjc-96" vertex="1">
          <mxGeometry y="78" width="160" height="8" as="geometry" />
        </mxCell>
        <mxCell id="b7NgIzZ4ozKnUG5l8xjc-99" value="-offCampus()" style="text;strokeColor=none;fillColor=none;align=left;verticalAlign=top;spacingLeft=4;spacingRight=4;overflow=hidden;rotatable=0;points=[[0,0.5],[1,0.5]];portConstraint=eastwest;" parent="b7NgIzZ4ozKnUG5l8xjc-96" vertex="1">
          <mxGeometry y="86" width="160" height="26" as="geometry" />
        </mxCell>
        <mxCell id="b7NgIzZ4ozKnUG5l8xjc-101" value="-onCampus()" style="text;strokeColor=none;fillColor=none;align=left;verticalAlign=top;spacingLeft=4;spacingRight=4;overflow=hidden;rotatable=0;points=[[0,0.5],[1,0.5]];portConstraint=eastwest;" parent="b7NgIzZ4ozKnUG5l8xjc-96" vertex="1">
          <mxGeometry y="112" width="160" height="26" as="geometry" />
        </mxCell>
        <mxCell id="b7NgIzZ4ozKnUG5l8xjc-107" value="" style="html=1;" parent="1" vertex="1">
          <mxGeometry x="636.45" y="848" width="190" height="28" as="geometry" />
        </mxCell>
        <mxCell id="b7NgIzZ4ozKnUG5l8xjc-111" value="" style="endArrow=none;html=1;rounded=0;entryX=0.203;entryY=0.955;entryDx=0;entryDy=0;entryPerimeter=0;" parent="1" target="b7NgIzZ4ozKnUG5l8xjc-101" edge="1">
          <mxGeometry width="50" height="50" relative="1" as="geometry">
            <mxPoint x="380" y="280" as="sourcePoint" />
            <mxPoint x="170" y="280" as="targetPoint" />
            <Array as="points">
              <mxPoint x="182" y="280" />
            </Array>
          </mxGeometry>
        </mxCell>
        <mxCell id="b7NgIzZ4ozKnUG5l8xjc-112" value="choose" style="edgeLabel;html=1;align=center;verticalAlign=middle;resizable=0;points=[];" parent="b7NgIzZ4ozKnUG5l8xjc-111" vertex="1" connectable="0">
          <mxGeometry x="-0.2168" y="-3" relative="1" as="geometry">
            <mxPoint as="offset" />
          </mxGeometry>
        </mxCell>
        <mxCell id="b7NgIzZ4ozKnUG5l8xjc-113" value="1..*" style="edgeLabel;html=1;align=center;verticalAlign=middle;resizable=0;points=[];" parent="b7NgIzZ4ozKnUG5l8xjc-111" vertex="1" connectable="0">
          <mxGeometry x="-0.7682" relative="1" as="geometry">
            <mxPoint as="offset" />
          </mxGeometry>
        </mxCell>
        <mxCell id="b7NgIzZ4ozKnUG5l8xjc-114" value="0..*" style="edgeLabel;html=1;align=center;verticalAlign=middle;resizable=0;points=[];" parent="b7NgIzZ4ozKnUG5l8xjc-111" vertex="1" connectable="0">
          <mxGeometry x="0.8932" y="1" relative="1" as="geometry">
            <mxPoint as="offset" />
          </mxGeometry>
        </mxCell>
        <mxCell id="b7NgIzZ4ozKnUG5l8xjc-116" value="" style="endArrow=none;html=1;rounded=0;exitX=0.75;exitY=0;exitDx=0;exitDy=0;entryX=0.51;entryY=1.02;entryDx=0;entryDy=0;entryPerimeter=0;" parent="1" source="b7NgIzZ4ozKnUG5l8xjc-51" target="b7NgIzZ4ozKnUG5l8xjc-49" edge="1">
          <mxGeometry width="50" height="50" relative="1" as="geometry">
            <mxPoint x="220" y="400" as="sourcePoint" />
            <mxPoint x="270" y="350" as="targetPoint" />
            <Array as="points">
              <mxPoint x="487" y="430" />
            </Array>
          </mxGeometry>
        </mxCell>
        <mxCell id="b7NgIzZ4ozKnUG5l8xjc-117" value="view" style="edgeLabel;html=1;align=center;verticalAlign=middle;resizable=0;points=[];" parent="b7NgIzZ4ozKnUG5l8xjc-116" vertex="1" connectable="0">
          <mxGeometry x="0.0474" y="-4" relative="1" as="geometry">
            <mxPoint as="offset" />
          </mxGeometry>
        </mxCell>
        <mxCell id="b7NgIzZ4ozKnUG5l8xjc-118" value="0..*" style="edgeLabel;html=1;align=center;verticalAlign=middle;resizable=0;points=[];" parent="b7NgIzZ4ozKnUG5l8xjc-116" vertex="1" connectable="0">
          <mxGeometry x="-0.5459" y="-1" relative="1" as="geometry">
            <mxPoint as="offset" />
          </mxGeometry>
        </mxCell>
        <mxCell id="b7NgIzZ4ozKnUG5l8xjc-119" value="1..*" style="edgeLabel;html=1;align=center;verticalAlign=middle;resizable=0;points=[];" parent="b7NgIzZ4ozKnUG5l8xjc-116" vertex="1" connectable="0">
          <mxGeometry x="0.8953" y="-2" relative="1" as="geometry">
            <mxPoint as="offset" />
          </mxGeometry>
        </mxCell>
        <mxCell id="b7NgIzZ4ozKnUG5l8xjc-122" value="chechout" style="endArrow=none;html=1;rounded=0;entryX=0.004;entryY=0.627;entryDx=0;entryDy=0;entryPerimeter=0;exitX=1.01;exitY=0.152;exitDx=0;exitDy=0;exitPerimeter=0;" parent="1" source="b7NgIzZ4ozKnUG5l8xjc-60" target="b7NgIzZ4ozKnUG5l8xjc-62" edge="1">
          <mxGeometry width="50" height="50" relative="1" as="geometry">
            <mxPoint x="180" y="600" as="sourcePoint" />
            <mxPoint x="230" y="550" as="targetPoint" />
          </mxGeometry>
        </mxCell>
        <mxCell id="b7NgIzZ4ozKnUG5l8xjc-123" value="0..*" style="edgeLabel;html=1;align=center;verticalAlign=middle;resizable=0;points=[];" parent="b7NgIzZ4ozKnUG5l8xjc-122" vertex="1" connectable="0">
          <mxGeometry x="-0.8867" y="-2" relative="1" as="geometry">
            <mxPoint as="offset" />
          </mxGeometry>
        </mxCell>
        <mxCell id="b7NgIzZ4ozKnUG5l8xjc-124" value="1..*" style="edgeLabel;html=1;align=center;verticalAlign=middle;resizable=0;points=[];" parent="b7NgIzZ4ozKnUG5l8xjc-122" vertex="1" connectable="0">
          <mxGeometry x="0.8695" y="3" relative="1" as="geometry">
            <mxPoint as="offset" />
          </mxGeometry>
        </mxCell>
        <mxCell id="b7NgIzZ4ozKnUG5l8xjc-125" value="" style="endArrow=none;html=1;rounded=0;exitX=0;exitY=0.5;exitDx=0;exitDy=0;entryX=-0.013;entryY=0.216;entryDx=0;entryDy=0;entryPerimeter=0;" parent="1" source="b7NgIzZ4ozKnUG5l8xjc-60" target="b7NgIzZ4ozKnUG5l8xjc-52" edge="1">
          <mxGeometry width="50" height="50" relative="1" as="geometry">
            <mxPoint x="80" y="580" as="sourcePoint" />
            <mxPoint x="130" y="530" as="targetPoint" />
            <Array as="points">
              <mxPoint x="70" y="678" />
              <mxPoint x="70" y="470" />
            </Array>
          </mxGeometry>
        </mxCell>
        <mxCell id="b7NgIzZ4ozKnUG5l8xjc-126" value="countiue" style="edgeLabel;html=1;align=center;verticalAlign=middle;resizable=0;points=[];" parent="b7NgIzZ4ozKnUG5l8xjc-125" vertex="1" connectable="0">
          <mxGeometry x="0.0489" y="-4" relative="1" as="geometry">
            <mxPoint as="offset" />
          </mxGeometry>
        </mxCell>
        <mxCell id="b7NgIzZ4ozKnUG5l8xjc-127" value="1..*" style="edgeLabel;html=1;align=center;verticalAlign=middle;resizable=0;points=[];" parent="b7NgIzZ4ozKnUG5l8xjc-125" vertex="1" connectable="0">
          <mxGeometry x="0.917" relative="1" as="geometry">
            <mxPoint y="-1" as="offset" />
          </mxGeometry>
        </mxCell>
        <mxCell id="b7NgIzZ4ozKnUG5l8xjc-128" value="0..*" style="edgeLabel;html=1;align=center;verticalAlign=middle;resizable=0;points=[];" parent="b7NgIzZ4ozKnUG5l8xjc-125" vertex="1" connectable="0">
          <mxGeometry x="-0.8857" y="-3" relative="1" as="geometry">
            <mxPoint as="offset" />
          </mxGeometry>
        </mxCell>
        <mxCell id="b7NgIzZ4ozKnUG5l8xjc-135" style="edgeStyle=orthogonalEdgeStyle;rounded=0;orthogonalLoop=1;jettySize=auto;html=1;exitX=1;exitY=0.5;exitDx=0;exitDy=0;entryX=0.5;entryY=1;entryDx=0;entryDy=0;" parent="1" source="b7NgIzZ4ozKnUG5l8xjc-131" target="b7NgIzZ4ozKnUG5l8xjc-133" edge="1">
          <mxGeometry relative="1" as="geometry" />
        </mxCell>
        <mxCell id="b7NgIzZ4ozKnUG5l8xjc-136" value="food order" style="edgeLabel;html=1;align=center;verticalAlign=middle;resizable=0;points=[];" parent="b7NgIzZ4ozKnUG5l8xjc-135" vertex="1" connectable="0">
          <mxGeometry x="0.2048" y="-2" relative="1" as="geometry">
            <mxPoint as="offset" />
          </mxGeometry>
        </mxCell>
        <mxCell id="b7NgIzZ4ozKnUG5l8xjc-140" style="edgeStyle=orthogonalEdgeStyle;rounded=0;orthogonalLoop=1;jettySize=auto;html=1;" parent="1" source="b7NgIzZ4ozKnUG5l8xjc-131" target="b7NgIzZ4ozKnUG5l8xjc-134" edge="1">
          <mxGeometry relative="1" as="geometry" />
        </mxCell>
        <mxCell id="b7NgIzZ4ozKnUG5l8xjc-141" value="food order" style="edgeLabel;html=1;align=center;verticalAlign=middle;resizable=0;points=[];" parent="b7NgIzZ4ozKnUG5l8xjc-140" vertex="1" connectable="0">
          <mxGeometry x="-0.0414" y="-1" relative="1" as="geometry">
            <mxPoint as="offset" />
          </mxGeometry>
        </mxCell>
        <mxCell id="b7NgIzZ4ozKnUG5l8xjc-131" value="UJ food system" style="rounded=1;whiteSpace=wrap;html=1;" parent="1" vertex="1">
          <mxGeometry x="1360" y="641" width="120" height="60" as="geometry" />
        </mxCell>
        <mxCell id="b7NgIzZ4ozKnUG5l8xjc-138" style="edgeStyle=orthogonalEdgeStyle;rounded=0;orthogonalLoop=1;jettySize=auto;html=1;entryX=0;entryY=0.75;entryDx=0;entryDy=0;exitX=0.321;exitY=0.997;exitDx=0;exitDy=0;exitPerimeter=0;" parent="1" source="b7NgIzZ4ozKnUG5l8xjc-132" target="b7NgIzZ4ozKnUG5l8xjc-131" edge="1">
          <mxGeometry relative="1" as="geometry">
            <Array as="points">
              <mxPoint x="1260" y="590" />
              <mxPoint x="1260" y="686" />
            </Array>
          </mxGeometry>
        </mxCell>
        <mxCell id="b7NgIzZ4ozKnUG5l8xjc-139" value="receipt" style="edgeLabel;html=1;align=center;verticalAlign=middle;resizable=0;points=[];" parent="b7NgIzZ4ozKnUG5l8xjc-138" vertex="1" connectable="0">
          <mxGeometry x="-0.3716" y="1" relative="1" as="geometry">
            <mxPoint as="offset" />
          </mxGeometry>
        </mxCell>
        <mxCell id="b7NgIzZ4ozKnUG5l8xjc-132" value="volunteers" style="rounded=0;whiteSpace=wrap;html=1;" parent="1" vertex="1">
          <mxGeometry x="1220" y="530" width="120" height="60" as="geometry" />
        </mxCell>
        <mxCell id="b7NgIzZ4ozKnUG5l8xjc-137" value="customer order" style="edgeStyle=orthogonalEdgeStyle;rounded=0;orthogonalLoop=1;jettySize=auto;html=1;" parent="1" source="b7NgIzZ4ozKnUG5l8xjc-133" target="b7NgIzZ4ozKnUG5l8xjc-132" edge="1">
          <mxGeometry relative="1" as="geometry" />
        </mxCell>
        <mxCell id="b7NgIzZ4ozKnUG5l8xjc-133" value="Resturant" style="rounded=0;whiteSpace=wrap;html=1;" parent="1" vertex="1">
          <mxGeometry x="1480" y="530" width="120" height="60" as="geometry" />
        </mxCell>
        <mxCell id="b7NgIzZ4ozKnUG5l8xjc-142" style="edgeStyle=orthogonalEdgeStyle;rounded=0;orthogonalLoop=1;jettySize=auto;html=1;entryX=0.154;entryY=1.028;entryDx=0;entryDy=0;entryPerimeter=0;" parent="1" source="b7NgIzZ4ozKnUG5l8xjc-134" target="b7NgIzZ4ozKnUG5l8xjc-132" edge="1">
          <mxGeometry relative="1" as="geometry" />
        </mxCell>
        <mxCell id="b7NgIzZ4ozKnUG5l8xjc-143" value="customer order" style="edgeLabel;html=1;align=center;verticalAlign=middle;resizable=0;points=[];" parent="b7NgIzZ4ozKnUG5l8xjc-142" vertex="1" connectable="0">
          <mxGeometry x="-0.613" y="1" relative="1" as="geometry">
            <mxPoint as="offset" />
          </mxGeometry>
        </mxCell>
        <mxCell id="b7NgIzZ4ozKnUG5l8xjc-134" value="cafeteria" style="rounded=0;whiteSpace=wrap;html=1;" parent="1" vertex="1">
          <mxGeometry x="1360" y="800" width="120" height="60" as="geometry" />
        </mxCell>
        <mxCell id="b7NgIzZ4ozKnUG5l8xjc-144" value="onCampus" style="swimlane;fontStyle=1;align=center;verticalAlign=top;childLayout=stackLayout;horizontal=1;startSize=26;horizontalStack=0;resizeParent=1;resizeParentMax=0;resizeLast=0;collapsible=1;marginBottom=0;" parent="1" vertex="1">
          <mxGeometry x="570" y="70" width="300" height="138" as="geometry" />
        </mxCell>
        <mxCell id="b7NgIzZ4ozKnUG5l8xjc-145" value="-nameOfcCafeteria:string" style="text;strokeColor=none;fillColor=none;align=left;verticalAlign=top;spacingLeft=4;spacingRight=4;overflow=hidden;rotatable=0;points=[[0,0.5],[1,0.5]];portConstraint=eastwest;" parent="b7NgIzZ4ozKnUG5l8xjc-144" vertex="1">
          <mxGeometry y="26" width="300" height="26" as="geometry" />
        </mxCell>
        <mxCell id="b7NgIzZ4ozKnUG5l8xjc-149" value="-ratingFeature:int" style="text;strokeColor=none;fillColor=none;align=left;verticalAlign=top;spacingLeft=4;spacingRight=4;overflow=hidden;rotatable=0;points=[[0,0.5],[1,0.5]];portConstraint=eastwest;" parent="b7NgIzZ4ozKnUG5l8xjc-144" vertex="1">
          <mxGeometry y="52" width="300" height="26" as="geometry" />
        </mxCell>
        <mxCell id="b7NgIzZ4ozKnUG5l8xjc-150" value="-searchBar:string" style="text;strokeColor=none;fillColor=none;align=left;verticalAlign=top;spacingLeft=4;spacingRight=4;overflow=hidden;rotatable=0;points=[[0,0.5],[1,0.5]];portConstraint=eastwest;" parent="b7NgIzZ4ozKnUG5l8xjc-144" vertex="1">
          <mxGeometry y="78" width="300" height="26" as="geometry" />
        </mxCell>
        <mxCell id="b7NgIzZ4ozKnUG5l8xjc-146" value="" style="line;strokeWidth=1;fillColor=none;align=left;verticalAlign=middle;spacingTop=-1;spacingLeft=3;spacingRight=3;rotatable=0;labelPosition=right;points=[];portConstraint=eastwest;strokeColor=inherit;" parent="b7NgIzZ4ozKnUG5l8xjc-144" vertex="1">
          <mxGeometry y="104" width="300" height="8" as="geometry" />
        </mxCell>
        <mxCell id="b7NgIzZ4ozKnUG5l8xjc-147" value="+viewMenu()" style="text;strokeColor=none;fillColor=none;align=left;verticalAlign=top;spacingLeft=4;spacingRight=4;overflow=hidden;rotatable=0;points=[[0,0.5],[1,0.5]];portConstraint=eastwest;" parent="b7NgIzZ4ozKnUG5l8xjc-144" vertex="1">
          <mxGeometry y="112" width="300" height="26" as="geometry" />
        </mxCell>
        <mxCell id="b7NgIzZ4ozKnUG5l8xjc-151" value="cafeteria" style="swimlane;fontStyle=1;align=center;verticalAlign=top;childLayout=stackLayout;horizontal=1;startSize=26;horizontalStack=0;resizeParent=1;resizeParentMax=0;resizeLast=0;collapsible=1;marginBottom=0;" parent="1" vertex="1">
          <mxGeometry x="730" y="350" width="160" height="120" as="geometry" />
        </mxCell>
        <mxCell id="b7NgIzZ4ozKnUG5l8xjc-152" value="-menu:string&#xa;-price:int&#xa;-calories:int" style="text;strokeColor=none;fillColor=none;align=left;verticalAlign=top;spacingLeft=4;spacingRight=4;overflow=hidden;rotatable=0;points=[[0,0.5],[1,0.5]];portConstraint=eastwest;" parent="b7NgIzZ4ozKnUG5l8xjc-151" vertex="1">
          <mxGeometry y="26" width="160" height="54" as="geometry" />
        </mxCell>
        <mxCell id="b7NgIzZ4ozKnUG5l8xjc-153" value="" style="line;strokeWidth=1;fillColor=none;align=left;verticalAlign=middle;spacingTop=-1;spacingLeft=3;spacingRight=3;rotatable=0;labelPosition=right;points=[];portConstraint=eastwest;strokeColor=inherit;" parent="b7NgIzZ4ozKnUG5l8xjc-151" vertex="1">
          <mxGeometry y="80" width="160" height="8" as="geometry" />
        </mxCell>
        <mxCell id="b7NgIzZ4ozKnUG5l8xjc-154" value="-chooseMeal()" style="text;strokeColor=none;fillColor=none;align=left;verticalAlign=top;spacingLeft=4;spacingRight=4;overflow=hidden;rotatable=0;points=[[0,0.5],[1,0.5]];portConstraint=eastwest;" parent="b7NgIzZ4ozKnUG5l8xjc-151" vertex="1">
          <mxGeometry y="88" width="160" height="32" as="geometry" />
        </mxCell>
        <mxCell id="b7NgIzZ4ozKnUG5l8xjc-156" value="" style="endArrow=none;html=1;rounded=0;exitX=1.004;exitY=0.797;exitDx=0;exitDy=0;exitPerimeter=0;entryX=0;entryY=0.5;entryDx=0;entryDy=0;" parent="1" source="b7NgIzZ4ozKnUG5l8xjc-106" target="b7NgIzZ4ozKnUG5l8xjc-150" edge="1">
          <mxGeometry width="50" height="50" relative="1" as="geometry">
            <mxPoint x="440" y="230" as="sourcePoint" />
            <mxPoint x="490" y="180" as="targetPoint" />
          </mxGeometry>
        </mxCell>
        <mxCell id="b7NgIzZ4ozKnUG5l8xjc-158" value="choose" style="edgeLabel;html=1;align=center;verticalAlign=middle;resizable=0;points=[];" parent="b7NgIzZ4ozKnUG5l8xjc-156" vertex="1" connectable="0">
          <mxGeometry x="0.0321" y="-2" relative="1" as="geometry">
            <mxPoint as="offset" />
          </mxGeometry>
        </mxCell>
        <mxCell id="b7NgIzZ4ozKnUG5l8xjc-159" value="0..*" style="edgeLabel;html=1;align=center;verticalAlign=middle;resizable=0;points=[];" parent="b7NgIzZ4ozKnUG5l8xjc-156" vertex="1" connectable="0">
          <mxGeometry x="-0.8778" y="-1" relative="1" as="geometry">
            <mxPoint as="offset" />
          </mxGeometry>
        </mxCell>
        <mxCell id="b7NgIzZ4ozKnUG5l8xjc-160" value="1..*" style="edgeLabel;html=1;align=center;verticalAlign=middle;resizable=0;points=[];" parent="b7NgIzZ4ozKnUG5l8xjc-156" vertex="1" connectable="0">
          <mxGeometry x="0.8727" y="-1" relative="1" as="geometry">
            <mxPoint as="offset" />
          </mxGeometry>
        </mxCell>
        <mxCell id="b7NgIzZ4ozKnUG5l8xjc-157" value="" style="endArrow=none;html=1;rounded=0;exitX=-0.003;exitY=0.426;exitDx=0;exitDy=0;exitPerimeter=0;entryX=0.319;entryY=0.995;entryDx=0;entryDy=0;entryPerimeter=0;" parent="1" source="b7NgIzZ4ozKnUG5l8xjc-152" target="b7NgIzZ4ozKnUG5l8xjc-147" edge="1">
          <mxGeometry width="50" height="50" relative="1" as="geometry">
            <mxPoint x="440" y="230" as="sourcePoint" />
            <mxPoint x="490" y="180" as="targetPoint" />
            <Array as="points">
              <mxPoint x="666" y="350" />
            </Array>
          </mxGeometry>
        </mxCell>
        <mxCell id="b7NgIzZ4ozKnUG5l8xjc-162" value="order" style="edgeLabel;html=1;align=center;verticalAlign=middle;resizable=0;points=[];" parent="b7NgIzZ4ozKnUG5l8xjc-157" vertex="1" connectable="0">
          <mxGeometry x="0.3129" y="-1" relative="1" as="geometry">
            <mxPoint as="offset" />
          </mxGeometry>
        </mxCell>
        <mxCell id="b7NgIzZ4ozKnUG5l8xjc-163" value="0..*" style="edgeLabel;html=1;align=center;verticalAlign=middle;resizable=0;points=[];" parent="b7NgIzZ4ozKnUG5l8xjc-157" vertex="1" connectable="0">
          <mxGeometry x="-0.8722" y="1" relative="1" as="geometry">
            <mxPoint as="offset" />
          </mxGeometry>
        </mxCell>
        <mxCell id="b7NgIzZ4ozKnUG5l8xjc-164" value="1..*" style="edgeLabel;html=1;align=center;verticalAlign=middle;resizable=0;points=[];" parent="b7NgIzZ4ozKnUG5l8xjc-157" vertex="1" connectable="0">
          <mxGeometry x="0.8959" y="2" relative="1" as="geometry">
            <mxPoint as="offset" />
          </mxGeometry>
        </mxCell>
        <mxCell id="b7NgIzZ4ozKnUG5l8xjc-165" value="convert" style="endArrow=none;html=1;rounded=0;entryX=-0.006;entryY=0.763;entryDx=0;entryDy=0;entryPerimeter=0;exitX=0.988;exitY=0.203;exitDx=0;exitDy=0;exitPerimeter=0;" parent="1" source="b7NgIzZ4ozKnUG5l8xjc-58" target="b7NgIzZ4ozKnUG5l8xjc-154" edge="1">
          <mxGeometry width="50" height="50" relative="1" as="geometry">
            <mxPoint x="440" y="640" as="sourcePoint" />
            <mxPoint x="490" y="590" as="targetPoint" />
          </mxGeometry>
        </mxCell>
        <mxCell id="b7NgIzZ4ozKnUG5l8xjc-166" value="0..*" style="edgeLabel;html=1;align=center;verticalAlign=middle;resizable=0;points=[];" parent="b7NgIzZ4ozKnUG5l8xjc-165" vertex="1" connectable="0">
          <mxGeometry x="-0.9143" relative="1" as="geometry">
            <mxPoint as="offset" />
          </mxGeometry>
        </mxCell>
        <mxCell id="b7NgIzZ4ozKnUG5l8xjc-167" value="1..*" style="edgeLabel;html=1;align=center;verticalAlign=middle;resizable=0;points=[];" parent="b7NgIzZ4ozKnUG5l8xjc-165" vertex="1" connectable="0">
          <mxGeometry x="0.9477" y="2" relative="1" as="geometry">
            <mxPoint as="offset" />
          </mxGeometry>
        </mxCell>
        <mxCell id="b7NgIzZ4ozKnUG5l8xjc-168" value="" style="endArrow=none;html=1;rounded=0;entryX=0;entryY=0.5;entryDx=0;entryDy=0;exitX=0.004;exitY=0.012;exitDx=0;exitDy=0;exitPerimeter=0;" parent="1" source="b7NgIzZ4ozKnUG5l8xjc-72" target="b7NgIzZ4ozKnUG5l8xjc-64" edge="1">
          <mxGeometry width="50" height="50" relative="1" as="geometry">
            <mxPoint x="639.0500000000002" y="880.0540000000001" as="sourcePoint" />
            <mxPoint x="490" y="600" as="targetPoint" />
            <Array as="points">
              <mxPoint x="580" y="822" />
              <mxPoint x="520" y="822" />
              <mxPoint x="520" y="732" />
              <mxPoint x="520" y="710" />
            </Array>
          </mxGeometry>
        </mxCell>
        <mxCell id="b7NgIzZ4ozKnUG5l8xjc-169" value="payment" style="edgeLabel;html=1;align=center;verticalAlign=middle;resizable=0;points=[];" parent="b7NgIzZ4ozKnUG5l8xjc-168" vertex="1" connectable="0">
          <mxGeometry x="0.0575" y="1" relative="1" as="geometry">
            <mxPoint as="offset" />
          </mxGeometry>
        </mxCell>
        <mxCell id="b7NgIzZ4ozKnUG5l8xjc-170" value="0..*" style="edgeLabel;html=1;align=center;verticalAlign=middle;resizable=0;points=[];" parent="b7NgIzZ4ozKnUG5l8xjc-168" vertex="1" connectable="0">
          <mxGeometry x="-0.8413" y="-2" relative="1" as="geometry">
            <mxPoint as="offset" />
          </mxGeometry>
        </mxCell>
        <mxCell id="b7NgIzZ4ozKnUG5l8xjc-171" value="1..*" style="edgeLabel;html=1;align=center;verticalAlign=middle;resizable=0;points=[];" parent="b7NgIzZ4ozKnUG5l8xjc-168" vertex="1" connectable="0">
          <mxGeometry x="0.8747" y="-1" relative="1" as="geometry">
            <mxPoint as="offset" />
          </mxGeometry>
        </mxCell>
        <mxCell id="b7NgIzZ4ozKnUG5l8xjc-174" value="" style="endArrow=none;html=1;rounded=0;entryX=0;entryY=0.5;entryDx=0;entryDy=0;exitX=1;exitY=0.5;exitDx=0;exitDy=0;" parent="1" source="b7NgIzZ4ozKnUG5l8xjc-107" target="b7NgIzZ4ozKnUG5l8xjc-92" edge="1">
          <mxGeometry width="50" height="50" relative="1" as="geometry">
            <mxPoint x="440" y="650" as="sourcePoint" />
            <mxPoint x="490" y="600" as="targetPoint" />
          </mxGeometry>
        </mxCell>
        <mxCell id="b7NgIzZ4ozKnUG5l8xjc-180" value="rate" style="edgeLabel;html=1;align=center;verticalAlign=middle;resizable=0;points=[];" parent="b7NgIzZ4ozKnUG5l8xjc-174" vertex="1" connectable="0">
          <mxGeometry x="0.1383" y="1" relative="1" as="geometry">
            <mxPoint as="offset" />
          </mxGeometry>
        </mxCell>
        <mxCell id="b7NgIzZ4ozKnUG5l8xjc-181" value="1..*" style="edgeLabel;html=1;align=center;verticalAlign=middle;resizable=0;points=[];" parent="b7NgIzZ4ozKnUG5l8xjc-174" vertex="1" connectable="0">
          <mxGeometry x="0.8215" y="2" relative="1" as="geometry">
            <mxPoint as="offset" />
          </mxGeometry>
        </mxCell>
        <mxCell id="b7NgIzZ4ozKnUG5l8xjc-182" value="0..*" style="edgeLabel;html=1;align=center;verticalAlign=middle;resizable=0;points=[];" parent="b7NgIzZ4ozKnUG5l8xjc-174" vertex="1" connectable="0">
          <mxGeometry x="-0.7905" y="1" relative="1" as="geometry">
            <mxPoint as="offset" />
          </mxGeometry>
        </mxCell>
        <mxCell id="b7NgIzZ4ozKnUG5l8xjc-175" value="" style="endArrow=none;html=1;rounded=0;exitX=0.625;exitY=1.099;exitDx=0;exitDy=0;exitPerimeter=0;entryX=0;entryY=0.5;entryDx=0;entryDy=0;" parent="1" source="b7NgIzZ4ozKnUG5l8xjc-60" target="b7NgIzZ4ozKnUG5l8xjc-101" edge="1">
          <mxGeometry width="50" height="50" relative="1" as="geometry">
            <mxPoint x="260" y="560" as="sourcePoint" />
            <mxPoint x="310" y="510" as="targetPoint" />
            <Array as="points">
              <mxPoint x="240" y="830" />
              <mxPoint x="30" y="830" />
              <mxPoint x="30" y="240" />
            </Array>
          </mxGeometry>
        </mxCell>
        <mxCell id="b7NgIzZ4ozKnUG5l8xjc-176" value="shopping" style="edgeLabel;html=1;align=center;verticalAlign=middle;resizable=0;points=[];" parent="b7NgIzZ4ozKnUG5l8xjc-175" vertex="1" connectable="0">
          <mxGeometry x="-0.1687" relative="1" as="geometry">
            <mxPoint as="offset" />
          </mxGeometry>
        </mxCell>
        <mxCell id="b7NgIzZ4ozKnUG5l8xjc-177" value="0..*" style="edgeLabel;html=1;align=center;verticalAlign=middle;resizable=0;points=[];" parent="b7NgIzZ4ozKnUG5l8xjc-175" vertex="1" connectable="0">
          <mxGeometry x="0.972" y="-2" relative="1" as="geometry">
            <mxPoint as="offset" />
          </mxGeometry>
        </mxCell>
        <mxCell id="b7NgIzZ4ozKnUG5l8xjc-179" value="-rate()" style="text;strokeColor=none;fillColor=none;align=left;verticalAlign=top;spacingLeft=4;spacingRight=4;overflow=hidden;rotatable=0;points=[[0,0.5],[1,0.5]];portConstraint=eastwest;" parent="1" vertex="1">
          <mxGeometry x="636.45" y="850" width="100" height="26" as="geometry" />
        </mxCell>
      </root>
    </mxGraphModel>
  </diagram>
  <diagram name="‫نسخة من Page-1‬" id="LRdr90teoCUlBIOqdA9Z">
    <mxGraphModel dx="2812" dy="1404" grid="1" gridSize="10" guides="1" tooltips="1" connect="1" arrows="1" fold="1" page="1" pageScale="1" pageWidth="827" pageHeight="1169" math="0" shadow="0">
      <root>
        <mxCell id="WYYxrPqUGSUqEibEmlbP-0" />
        <mxCell id="WYYxrPqUGSUqEibEmlbP-1" parent="WYYxrPqUGSUqEibEmlbP-0" />
        <mxCell id="WYYxrPqUGSUqEibEmlbP-2" value="offCampus" style="swimlane;fontStyle=1;align=center;verticalAlign=top;childLayout=stackLayout;horizontal=1;startSize=31;horizontalStack=0;resizeParent=1;resizeParentMax=0;resizeLast=0;collapsible=1;marginBottom=0;" parent="WYYxrPqUGSUqEibEmlbP-1" vertex="1">
          <mxGeometry x="380" y="228" width="210" height="150" as="geometry" />
        </mxCell>
        <mxCell id="WYYxrPqUGSUqEibEmlbP-3" value="-nameOfRestaurants:string&#xa;-time:int&#xa;-ratingFeature:int&#xa;" style="text;strokeColor=none;fillColor=none;align=left;verticalAlign=top;spacingLeft=4;spacingRight=4;overflow=hidden;rotatable=0;points=[[0,0.5],[1,0.5]];portConstraint=eastwest;" parent="WYYxrPqUGSUqEibEmlbP-2" vertex="1">
          <mxGeometry y="31" width="210" height="49" as="geometry" />
        </mxCell>
        <mxCell id="WYYxrPqUGSUqEibEmlbP-4" value="-searchBar:string" style="text;strokeColor=none;fillColor=none;align=left;verticalAlign=top;spacingLeft=4;spacingRight=4;overflow=hidden;rotatable=0;points=[[0,0.5],[1,0.5]];portConstraint=eastwest;" parent="WYYxrPqUGSUqEibEmlbP-2" vertex="1">
          <mxGeometry y="80" width="210" height="30" as="geometry" />
        </mxCell>
        <mxCell id="WYYxrPqUGSUqEibEmlbP-5" value="" style="line;strokeWidth=1;fillColor=none;align=left;verticalAlign=middle;spacingTop=-1;spacingLeft=3;spacingRight=3;rotatable=0;labelPosition=right;points=[];portConstraint=eastwest;strokeColor=inherit;" parent="WYYxrPqUGSUqEibEmlbP-2" vertex="1">
          <mxGeometry y="110" width="210" height="8" as="geometry" />
        </mxCell>
        <mxCell id="WYYxrPqUGSUqEibEmlbP-6" value="+viewMenu()" style="text;strokeColor=none;fillColor=none;align=left;verticalAlign=top;spacingLeft=4;spacingRight=4;overflow=hidden;rotatable=0;points=[[0,0.5],[1,0.5]];portConstraint=eastwest;" parent="WYYxrPqUGSUqEibEmlbP-2" vertex="1">
          <mxGeometry y="118" width="210" height="32" as="geometry" />
        </mxCell>
        <mxCell id="WYYxrPqUGSUqEibEmlbP-7" value="restarunt" style="swimlane;fontStyle=1;align=center;verticalAlign=top;childLayout=stackLayout;horizontal=1;startSize=26;horizontalStack=0;resizeParent=1;resizeParentMax=0;resizeLast=0;collapsible=1;marginBottom=0;" parent="WYYxrPqUGSUqEibEmlbP-1" vertex="1">
          <mxGeometry x="140" y="430" width="160" height="120" as="geometry" />
        </mxCell>
        <mxCell id="WYYxrPqUGSUqEibEmlbP-8" value="-menu:string&#xa;-price:int&#xa;-calories:int" style="text;strokeColor=none;fillColor=none;align=left;verticalAlign=top;spacingLeft=4;spacingRight=4;overflow=hidden;rotatable=0;points=[[0,0.5],[1,0.5]];portConstraint=eastwest;" parent="WYYxrPqUGSUqEibEmlbP-7" vertex="1">
          <mxGeometry y="26" width="160" height="54" as="geometry" />
        </mxCell>
        <mxCell id="WYYxrPqUGSUqEibEmlbP-9" value="" style="line;strokeWidth=1;fillColor=none;align=left;verticalAlign=middle;spacingTop=-1;spacingLeft=3;spacingRight=3;rotatable=0;labelPosition=right;points=[];portConstraint=eastwest;strokeColor=inherit;" parent="WYYxrPqUGSUqEibEmlbP-7" vertex="1">
          <mxGeometry y="80" width="160" height="8" as="geometry" />
        </mxCell>
        <mxCell id="WYYxrPqUGSUqEibEmlbP-10" value="-chooseMeal()" style="text;strokeColor=none;fillColor=none;align=left;verticalAlign=top;spacingLeft=4;spacingRight=4;overflow=hidden;rotatable=0;points=[[0,0.5],[1,0.5]];portConstraint=eastwest;" parent="WYYxrPqUGSUqEibEmlbP-7" vertex="1">
          <mxGeometry y="88" width="160" height="32" as="geometry" />
        </mxCell>
        <mxCell id="WYYxrPqUGSUqEibEmlbP-11" value="basket" style="swimlane;fontStyle=1;align=center;verticalAlign=top;childLayout=stackLayout;horizontal=1;startSize=26;horizontalStack=0;resizeParent=1;resizeParentMax=0;resizeLast=0;collapsible=1;marginBottom=0;" parent="WYYxrPqUGSUqEibEmlbP-1" vertex="1">
          <mxGeometry x="140" y="590" width="160" height="108" as="geometry" />
        </mxCell>
        <mxCell id="WYYxrPqUGSUqEibEmlbP-12" value="#price:int&#xa;#numberOfItem:int" style="text;strokeColor=none;fillColor=none;align=left;verticalAlign=top;spacingLeft=4;spacingRight=4;overflow=hidden;rotatable=0;points=[[0,0.5],[1,0.5]];portConstraint=eastwest;" parent="WYYxrPqUGSUqEibEmlbP-11" vertex="1">
          <mxGeometry y="26" width="160" height="34" as="geometry" />
        </mxCell>
        <mxCell id="WYYxrPqUGSUqEibEmlbP-13" value="" style="line;strokeWidth=1;fillColor=none;align=left;verticalAlign=middle;spacingTop=-1;spacingLeft=3;spacingRight=3;rotatable=0;labelPosition=right;points=[];portConstraint=eastwest;strokeColor=inherit;" parent="WYYxrPqUGSUqEibEmlbP-11" vertex="1">
          <mxGeometry y="60" width="160" height="8" as="geometry" />
        </mxCell>
        <mxCell id="WYYxrPqUGSUqEibEmlbP-14" value="-contiueShopping()&#xa;-checkout()" style="text;strokeColor=none;fillColor=none;align=left;verticalAlign=top;spacingLeft=4;spacingRight=4;overflow=hidden;rotatable=0;points=[[0,0.5],[1,0.5]];portConstraint=eastwest;" parent="WYYxrPqUGSUqEibEmlbP-11" vertex="1">
          <mxGeometry y="68" width="160" height="40" as="geometry" />
        </mxCell>
        <mxCell id="WYYxrPqUGSUqEibEmlbP-15" value="checkOut" style="swimlane;fontStyle=1;align=center;verticalAlign=top;childLayout=stackLayout;horizontal=1;startSize=26;horizontalStack=0;resizeParent=1;resizeParentMax=0;resizeLast=0;collapsible=1;marginBottom=0;" parent="WYYxrPqUGSUqEibEmlbP-1" vertex="1">
          <mxGeometry x="636.45" y="608" width="200" height="120" as="geometry" />
        </mxCell>
        <mxCell id="WYYxrPqUGSUqEibEmlbP-16" value="#total:int&#xa;#deliveryTime:int&#xa;#phoneNumber:int" style="text;strokeColor=none;fillColor=none;align=left;verticalAlign=top;spacingLeft=4;spacingRight=4;overflow=hidden;rotatable=0;points=[[0,0.5],[1,0.5]];portConstraint=eastwest;" parent="WYYxrPqUGSUqEibEmlbP-15" vertex="1">
          <mxGeometry y="26" width="200" height="54" as="geometry" />
        </mxCell>
        <mxCell id="WYYxrPqUGSUqEibEmlbP-17" value="" style="line;strokeWidth=1;fillColor=none;align=left;verticalAlign=middle;spacingTop=-1;spacingLeft=3;spacingRight=3;rotatable=0;labelPosition=right;points=[];portConstraint=eastwest;strokeColor=inherit;" parent="WYYxrPqUGSUqEibEmlbP-15" vertex="1">
          <mxGeometry y="80" width="200" height="8" as="geometry" />
        </mxCell>
        <mxCell id="WYYxrPqUGSUqEibEmlbP-18" value="-paymentMethod()" style="text;strokeColor=none;fillColor=none;align=left;verticalAlign=top;spacingLeft=4;spacingRight=4;overflow=hidden;rotatable=0;points=[[0,0.5],[1,0.5]];portConstraint=eastwest;" parent="WYYxrPqUGSUqEibEmlbP-15" vertex="1">
          <mxGeometry y="88" width="200" height="32" as="geometry" />
        </mxCell>
        <mxCell id="WYYxrPqUGSUqEibEmlbP-19" value="payment" style="swimlane;fontStyle=0;childLayout=stackLayout;horizontal=1;startSize=26;fillColor=none;horizontalStack=0;resizeParent=1;resizeParentMax=0;resizeLast=0;collapsible=1;marginBottom=0;" parent="WYYxrPqUGSUqEibEmlbP-1" vertex="1">
          <mxGeometry x="636.45" y="770" width="190" height="78" as="geometry">
            <mxRectangle x="360" y="940" width="180" height="110" as="alternateBounds" />
          </mxGeometry>
        </mxCell>
        <mxCell id="WYYxrPqUGSUqEibEmlbP-20" value="-orderName:string" style="text;strokeColor=none;fillColor=none;align=left;verticalAlign=top;spacingLeft=4;spacingRight=4;overflow=hidden;rotatable=0;points=[[0,0.5],[1,0.5]];portConstraint=eastwest;" parent="WYYxrPqUGSUqEibEmlbP-19" vertex="1">
          <mxGeometry y="26" width="190" height="26" as="geometry" />
        </mxCell>
        <mxCell id="WYYxrPqUGSUqEibEmlbP-21" value="#amountnumber" style="text;strokeColor=none;fillColor=none;align=left;verticalAlign=top;spacingLeft=4;spacingRight=4;overflow=hidden;rotatable=0;points=[[0,0.5],[1,0.5]];portConstraint=eastwest;" parent="WYYxrPqUGSUqEibEmlbP-19" vertex="1">
          <mxGeometry y="52" width="190" height="26" as="geometry" />
        </mxCell>
        <mxCell id="WYYxrPqUGSUqEibEmlbP-31" value="rating" style="swimlane;fontStyle=1;align=center;verticalAlign=top;childLayout=stackLayout;horizontal=1;startSize=26;horizontalStack=0;resizeParent=1;resizeParentMax=0;resizeLast=0;collapsible=1;marginBottom=0;" parent="WYYxrPqUGSUqEibEmlbP-1" vertex="1">
          <mxGeometry x="676.45" y="940" width="160" height="138" as="geometry" />
        </mxCell>
        <mxCell id="WYYxrPqUGSUqEibEmlbP-32" value="-deliveryTime:number" style="text;strokeColor=none;fillColor=none;align=left;verticalAlign=top;spacingLeft=4;spacingRight=4;overflow=hidden;rotatable=0;points=[[0,0.5],[1,0.5]];portConstraint=eastwest;" parent="WYYxrPqUGSUqEibEmlbP-31" vertex="1">
          <mxGeometry y="26" width="160" height="26" as="geometry" />
        </mxCell>
        <mxCell id="WYYxrPqUGSUqEibEmlbP-33" value="-deliveryDriver:number" style="text;strokeColor=none;fillColor=none;align=left;verticalAlign=top;spacingLeft=4;spacingRight=4;overflow=hidden;rotatable=0;points=[[0,0.5],[1,0.5]];portConstraint=eastwest;" parent="WYYxrPqUGSUqEibEmlbP-31" vertex="1">
          <mxGeometry y="52" width="160" height="26" as="geometry" />
        </mxCell>
        <mxCell id="WYYxrPqUGSUqEibEmlbP-34" value="-resturent:number" style="text;strokeColor=none;fillColor=none;align=left;verticalAlign=top;spacingLeft=4;spacingRight=4;overflow=hidden;rotatable=0;points=[[0,0.5],[1,0.5]];portConstraint=eastwest;" parent="WYYxrPqUGSUqEibEmlbP-31" vertex="1">
          <mxGeometry y="78" width="160" height="26" as="geometry" />
        </mxCell>
        <mxCell id="WYYxrPqUGSUqEibEmlbP-35" value="" style="line;strokeWidth=1;fillColor=none;align=left;verticalAlign=middle;spacingTop=-1;spacingLeft=3;spacingRight=3;rotatable=0;labelPosition=right;points=[];portConstraint=eastwest;strokeColor=inherit;" parent="WYYxrPqUGSUqEibEmlbP-31" vertex="1">
          <mxGeometry y="104" width="160" height="8" as="geometry" />
        </mxCell>
        <mxCell id="WYYxrPqUGSUqEibEmlbP-36" value="-submit()" style="text;strokeColor=none;fillColor=none;align=left;verticalAlign=top;spacingLeft=4;spacingRight=4;overflow=hidden;rotatable=0;points=[[0,0.5],[1,0.5]];portConstraint=eastwest;" parent="WYYxrPqUGSUqEibEmlbP-31" vertex="1">
          <mxGeometry y="112" width="160" height="26" as="geometry" />
        </mxCell>
        <mxCell id="WYYxrPqUGSUqEibEmlbP-37" value="order" style="swimlane;fontStyle=1;align=center;verticalAlign=top;childLayout=stackLayout;horizontal=1;startSize=26;horizontalStack=0;resizeParent=1;resizeParentMax=0;resizeLast=0;collapsible=1;marginBottom=0;" parent="WYYxrPqUGSUqEibEmlbP-1" vertex="1">
          <mxGeometry x="150" y="110" width="160" height="138" as="geometry" />
        </mxCell>
        <mxCell id="WYYxrPqUGSUqEibEmlbP-38" value="-orderType:string" style="text;strokeColor=none;fillColor=none;align=left;verticalAlign=top;spacingLeft=4;spacingRight=4;overflow=hidden;rotatable=0;points=[[0,0.5],[1,0.5]];portConstraint=eastwest;" parent="WYYxrPqUGSUqEibEmlbP-37" vertex="1">
          <mxGeometry y="26" width="160" height="26" as="geometry" />
        </mxCell>
        <mxCell id="WYYxrPqUGSUqEibEmlbP-39" value="-dailyOffer:string" style="text;strokeColor=none;fillColor=none;align=left;verticalAlign=top;spacingLeft=4;spacingRight=4;overflow=hidden;rotatable=0;points=[[0,0.5],[1,0.5]];portConstraint=eastwest;" parent="WYYxrPqUGSUqEibEmlbP-37" vertex="1">
          <mxGeometry y="52" width="160" height="26" as="geometry" />
        </mxCell>
        <mxCell id="WYYxrPqUGSUqEibEmlbP-40" value="" style="line;strokeWidth=1;fillColor=none;align=left;verticalAlign=middle;spacingTop=-1;spacingLeft=3;spacingRight=3;rotatable=0;labelPosition=right;points=[];portConstraint=eastwest;strokeColor=inherit;" parent="WYYxrPqUGSUqEibEmlbP-37" vertex="1">
          <mxGeometry y="78" width="160" height="8" as="geometry" />
        </mxCell>
        <mxCell id="WYYxrPqUGSUqEibEmlbP-41" value="-offCampus()" style="text;strokeColor=none;fillColor=none;align=left;verticalAlign=top;spacingLeft=4;spacingRight=4;overflow=hidden;rotatable=0;points=[[0,0.5],[1,0.5]];portConstraint=eastwest;" parent="WYYxrPqUGSUqEibEmlbP-37" vertex="1">
          <mxGeometry y="86" width="160" height="26" as="geometry" />
        </mxCell>
        <mxCell id="WYYxrPqUGSUqEibEmlbP-42" value="-onCampus()" style="text;strokeColor=none;fillColor=none;align=left;verticalAlign=top;spacingLeft=4;spacingRight=4;overflow=hidden;rotatable=0;points=[[0,0.5],[1,0.5]];portConstraint=eastwest;" parent="WYYxrPqUGSUqEibEmlbP-37" vertex="1">
          <mxGeometry y="112" width="160" height="26" as="geometry" />
        </mxCell>
        <mxCell id="WYYxrPqUGSUqEibEmlbP-43" value="" style="html=1;" parent="WYYxrPqUGSUqEibEmlbP-1" vertex="1">
          <mxGeometry x="636.45" y="848" width="190" height="28" as="geometry" />
        </mxCell>
        <mxCell id="WYYxrPqUGSUqEibEmlbP-44" value="" style="endArrow=none;html=1;rounded=0;entryX=0.203;entryY=0.955;entryDx=0;entryDy=0;entryPerimeter=0;" parent="WYYxrPqUGSUqEibEmlbP-1" target="WYYxrPqUGSUqEibEmlbP-42" edge="1">
          <mxGeometry width="50" height="50" relative="1" as="geometry">
            <mxPoint x="380" y="280" as="sourcePoint" />
            <mxPoint x="170" y="280" as="targetPoint" />
            <Array as="points">
              <mxPoint x="182" y="280" />
            </Array>
          </mxGeometry>
        </mxCell>
        <mxCell id="WYYxrPqUGSUqEibEmlbP-45" value="choose" style="edgeLabel;html=1;align=center;verticalAlign=middle;resizable=0;points=[];" parent="WYYxrPqUGSUqEibEmlbP-44" vertex="1" connectable="0">
          <mxGeometry x="-0.2168" y="-3" relative="1" as="geometry">
            <mxPoint as="offset" />
          </mxGeometry>
        </mxCell>
        <mxCell id="WYYxrPqUGSUqEibEmlbP-46" value="1..*" style="edgeLabel;html=1;align=center;verticalAlign=middle;resizable=0;points=[];" parent="WYYxrPqUGSUqEibEmlbP-44" vertex="1" connectable="0">
          <mxGeometry x="-0.7682" relative="1" as="geometry">
            <mxPoint as="offset" />
          </mxGeometry>
        </mxCell>
        <mxCell id="WYYxrPqUGSUqEibEmlbP-47" value="0..*" style="edgeLabel;html=1;align=center;verticalAlign=middle;resizable=0;points=[];" parent="WYYxrPqUGSUqEibEmlbP-44" vertex="1" connectable="0">
          <mxGeometry x="0.8932" y="1" relative="1" as="geometry">
            <mxPoint as="offset" />
          </mxGeometry>
        </mxCell>
        <mxCell id="WYYxrPqUGSUqEibEmlbP-48" value="" style="endArrow=none;html=1;rounded=0;exitX=0.75;exitY=0;exitDx=0;exitDy=0;entryX=0.51;entryY=1.02;entryDx=0;entryDy=0;entryPerimeter=0;" parent="WYYxrPqUGSUqEibEmlbP-1" source="WYYxrPqUGSUqEibEmlbP-7" target="WYYxrPqUGSUqEibEmlbP-6" edge="1">
          <mxGeometry width="50" height="50" relative="1" as="geometry">
            <mxPoint x="220" y="400" as="sourcePoint" />
            <mxPoint x="270" y="350" as="targetPoint" />
            <Array as="points">
              <mxPoint x="487" y="430" />
            </Array>
          </mxGeometry>
        </mxCell>
        <mxCell id="WYYxrPqUGSUqEibEmlbP-49" value="view" style="edgeLabel;html=1;align=center;verticalAlign=middle;resizable=0;points=[];" parent="WYYxrPqUGSUqEibEmlbP-48" vertex="1" connectable="0">
          <mxGeometry x="0.0474" y="-4" relative="1" as="geometry">
            <mxPoint as="offset" />
          </mxGeometry>
        </mxCell>
        <mxCell id="WYYxrPqUGSUqEibEmlbP-50" value="0..*" style="edgeLabel;html=1;align=center;verticalAlign=middle;resizable=0;points=[];" parent="WYYxrPqUGSUqEibEmlbP-48" vertex="1" connectable="0">
          <mxGeometry x="-0.5459" y="-1" relative="1" as="geometry">
            <mxPoint as="offset" />
          </mxGeometry>
        </mxCell>
        <mxCell id="WYYxrPqUGSUqEibEmlbP-51" value="1..*" style="edgeLabel;html=1;align=center;verticalAlign=middle;resizable=0;points=[];" parent="WYYxrPqUGSUqEibEmlbP-48" vertex="1" connectable="0">
          <mxGeometry x="0.8953" y="-2" relative="1" as="geometry">
            <mxPoint as="offset" />
          </mxGeometry>
        </mxCell>
        <mxCell id="WYYxrPqUGSUqEibEmlbP-52" value="chechout" style="endArrow=none;html=1;rounded=0;entryX=0.004;entryY=0.627;entryDx=0;entryDy=0;entryPerimeter=0;exitX=1.01;exitY=0.152;exitDx=0;exitDy=0;exitPerimeter=0;" parent="WYYxrPqUGSUqEibEmlbP-1" source="WYYxrPqUGSUqEibEmlbP-14" target="WYYxrPqUGSUqEibEmlbP-16" edge="1">
          <mxGeometry width="50" height="50" relative="1" as="geometry">
            <mxPoint x="180" y="600" as="sourcePoint" />
            <mxPoint x="230" y="550" as="targetPoint" />
          </mxGeometry>
        </mxCell>
        <mxCell id="WYYxrPqUGSUqEibEmlbP-53" value="0..*" style="edgeLabel;html=1;align=center;verticalAlign=middle;resizable=0;points=[];" parent="WYYxrPqUGSUqEibEmlbP-52" vertex="1" connectable="0">
          <mxGeometry x="-0.8867" y="-2" relative="1" as="geometry">
            <mxPoint as="offset" />
          </mxGeometry>
        </mxCell>
        <mxCell id="WYYxrPqUGSUqEibEmlbP-54" value="1..*" style="edgeLabel;html=1;align=center;verticalAlign=middle;resizable=0;points=[];" parent="WYYxrPqUGSUqEibEmlbP-52" vertex="1" connectable="0">
          <mxGeometry x="0.8695" y="3" relative="1" as="geometry">
            <mxPoint as="offset" />
          </mxGeometry>
        </mxCell>
        <mxCell id="WYYxrPqUGSUqEibEmlbP-55" value="" style="endArrow=none;html=1;rounded=0;exitX=0;exitY=0.5;exitDx=0;exitDy=0;entryX=-0.013;entryY=0.216;entryDx=0;entryDy=0;entryPerimeter=0;" parent="WYYxrPqUGSUqEibEmlbP-1" source="WYYxrPqUGSUqEibEmlbP-14" target="WYYxrPqUGSUqEibEmlbP-8" edge="1">
          <mxGeometry width="50" height="50" relative="1" as="geometry">
            <mxPoint x="80" y="580" as="sourcePoint" />
            <mxPoint x="130" y="530" as="targetPoint" />
            <Array as="points">
              <mxPoint x="70" y="678" />
              <mxPoint x="70" y="470" />
            </Array>
          </mxGeometry>
        </mxCell>
        <mxCell id="WYYxrPqUGSUqEibEmlbP-56" value="countiue" style="edgeLabel;html=1;align=center;verticalAlign=middle;resizable=0;points=[];" parent="WYYxrPqUGSUqEibEmlbP-55" vertex="1" connectable="0">
          <mxGeometry x="0.0489" y="-4" relative="1" as="geometry">
            <mxPoint as="offset" />
          </mxGeometry>
        </mxCell>
        <mxCell id="WYYxrPqUGSUqEibEmlbP-57" value="1..*" style="edgeLabel;html=1;align=center;verticalAlign=middle;resizable=0;points=[];" parent="WYYxrPqUGSUqEibEmlbP-55" vertex="1" connectable="0">
          <mxGeometry x="0.917" relative="1" as="geometry">
            <mxPoint y="-1" as="offset" />
          </mxGeometry>
        </mxCell>
        <mxCell id="WYYxrPqUGSUqEibEmlbP-58" value="0..*" style="edgeLabel;html=1;align=center;verticalAlign=middle;resizable=0;points=[];" parent="WYYxrPqUGSUqEibEmlbP-55" vertex="1" connectable="0">
          <mxGeometry x="-0.8857" y="-3" relative="1" as="geometry">
            <mxPoint as="offset" />
          </mxGeometry>
        </mxCell>
        <mxCell id="WYYxrPqUGSUqEibEmlbP-72" value="onCampus" style="swimlane;fontStyle=1;align=center;verticalAlign=top;childLayout=stackLayout;horizontal=1;startSize=26;horizontalStack=0;resizeParent=1;resizeParentMax=0;resizeLast=0;collapsible=1;marginBottom=0;" parent="WYYxrPqUGSUqEibEmlbP-1" vertex="1">
          <mxGeometry x="570" y="70" width="300" height="138" as="geometry" />
        </mxCell>
        <mxCell id="WYYxrPqUGSUqEibEmlbP-73" value="-nameOfcCafeteria:string" style="text;strokeColor=none;fillColor=none;align=left;verticalAlign=top;spacingLeft=4;spacingRight=4;overflow=hidden;rotatable=0;points=[[0,0.5],[1,0.5]];portConstraint=eastwest;" parent="WYYxrPqUGSUqEibEmlbP-72" vertex="1">
          <mxGeometry y="26" width="300" height="26" as="geometry" />
        </mxCell>
        <mxCell id="WYYxrPqUGSUqEibEmlbP-74" value="-ratingFeature:int" style="text;strokeColor=none;fillColor=none;align=left;verticalAlign=top;spacingLeft=4;spacingRight=4;overflow=hidden;rotatable=0;points=[[0,0.5],[1,0.5]];portConstraint=eastwest;" parent="WYYxrPqUGSUqEibEmlbP-72" vertex="1">
          <mxGeometry y="52" width="300" height="26" as="geometry" />
        </mxCell>
        <mxCell id="WYYxrPqUGSUqEibEmlbP-75" value="-searchBar:string" style="text;strokeColor=none;fillColor=none;align=left;verticalAlign=top;spacingLeft=4;spacingRight=4;overflow=hidden;rotatable=0;points=[[0,0.5],[1,0.5]];portConstraint=eastwest;" parent="WYYxrPqUGSUqEibEmlbP-72" vertex="1">
          <mxGeometry y="78" width="300" height="26" as="geometry" />
        </mxCell>
        <mxCell id="WYYxrPqUGSUqEibEmlbP-76" value="" style="line;strokeWidth=1;fillColor=none;align=left;verticalAlign=middle;spacingTop=-1;spacingLeft=3;spacingRight=3;rotatable=0;labelPosition=right;points=[];portConstraint=eastwest;strokeColor=inherit;" parent="WYYxrPqUGSUqEibEmlbP-72" vertex="1">
          <mxGeometry y="104" width="300" height="8" as="geometry" />
        </mxCell>
        <mxCell id="WYYxrPqUGSUqEibEmlbP-77" value="+viewMenu()" style="text;strokeColor=none;fillColor=none;align=left;verticalAlign=top;spacingLeft=4;spacingRight=4;overflow=hidden;rotatable=0;points=[[0,0.5],[1,0.5]];portConstraint=eastwest;" parent="WYYxrPqUGSUqEibEmlbP-72" vertex="1">
          <mxGeometry y="112" width="300" height="26" as="geometry" />
        </mxCell>
        <mxCell id="WYYxrPqUGSUqEibEmlbP-78" value="cafeteria" style="swimlane;fontStyle=1;align=center;verticalAlign=top;childLayout=stackLayout;horizontal=1;startSize=26;horizontalStack=0;resizeParent=1;resizeParentMax=0;resizeLast=0;collapsible=1;marginBottom=0;" parent="WYYxrPqUGSUqEibEmlbP-1" vertex="1">
          <mxGeometry x="730" y="350" width="160" height="120" as="geometry" />
        </mxCell>
        <mxCell id="WYYxrPqUGSUqEibEmlbP-79" value="-menu:string&#xa;-price:int&#xa;-calories:int" style="text;strokeColor=none;fillColor=none;align=left;verticalAlign=top;spacingLeft=4;spacingRight=4;overflow=hidden;rotatable=0;points=[[0,0.5],[1,0.5]];portConstraint=eastwest;" parent="WYYxrPqUGSUqEibEmlbP-78" vertex="1">
          <mxGeometry y="26" width="160" height="54" as="geometry" />
        </mxCell>
        <mxCell id="WYYxrPqUGSUqEibEmlbP-80" value="" style="line;strokeWidth=1;fillColor=none;align=left;verticalAlign=middle;spacingTop=-1;spacingLeft=3;spacingRight=3;rotatable=0;labelPosition=right;points=[];portConstraint=eastwest;strokeColor=inherit;" parent="WYYxrPqUGSUqEibEmlbP-78" vertex="1">
          <mxGeometry y="80" width="160" height="8" as="geometry" />
        </mxCell>
        <mxCell id="WYYxrPqUGSUqEibEmlbP-81" value="-chooseMeal()" style="text;strokeColor=none;fillColor=none;align=left;verticalAlign=top;spacingLeft=4;spacingRight=4;overflow=hidden;rotatable=0;points=[[0,0.5],[1,0.5]];portConstraint=eastwest;" parent="WYYxrPqUGSUqEibEmlbP-78" vertex="1">
          <mxGeometry y="88" width="160" height="32" as="geometry" />
        </mxCell>
        <mxCell id="WYYxrPqUGSUqEibEmlbP-82" value="" style="endArrow=none;html=1;rounded=0;exitX=1.004;exitY=0.797;exitDx=0;exitDy=0;exitPerimeter=0;entryX=0;entryY=0.5;entryDx=0;entryDy=0;" parent="WYYxrPqUGSUqEibEmlbP-1" source="WYYxrPqUGSUqEibEmlbP-38" target="WYYxrPqUGSUqEibEmlbP-75" edge="1">
          <mxGeometry width="50" height="50" relative="1" as="geometry">
            <mxPoint x="440" y="230" as="sourcePoint" />
            <mxPoint x="490" y="180" as="targetPoint" />
          </mxGeometry>
        </mxCell>
        <mxCell id="WYYxrPqUGSUqEibEmlbP-83" value="choose" style="edgeLabel;html=1;align=center;verticalAlign=middle;resizable=0;points=[];" parent="WYYxrPqUGSUqEibEmlbP-82" vertex="1" connectable="0">
          <mxGeometry x="0.0321" y="-2" relative="1" as="geometry">
            <mxPoint as="offset" />
          </mxGeometry>
        </mxCell>
        <mxCell id="WYYxrPqUGSUqEibEmlbP-84" value="0..*" style="edgeLabel;html=1;align=center;verticalAlign=middle;resizable=0;points=[];" parent="WYYxrPqUGSUqEibEmlbP-82" vertex="1" connectable="0">
          <mxGeometry x="-0.8778" y="-1" relative="1" as="geometry">
            <mxPoint as="offset" />
          </mxGeometry>
        </mxCell>
        <mxCell id="WYYxrPqUGSUqEibEmlbP-85" value="1..*" style="edgeLabel;html=1;align=center;verticalAlign=middle;resizable=0;points=[];" parent="WYYxrPqUGSUqEibEmlbP-82" vertex="1" connectable="0">
          <mxGeometry x="0.8727" y="-1" relative="1" as="geometry">
            <mxPoint as="offset" />
          </mxGeometry>
        </mxCell>
        <mxCell id="WYYxrPqUGSUqEibEmlbP-86" value="" style="endArrow=none;html=1;rounded=0;exitX=-0.003;exitY=0.426;exitDx=0;exitDy=0;exitPerimeter=0;entryX=0.319;entryY=0.995;entryDx=0;entryDy=0;entryPerimeter=0;" parent="WYYxrPqUGSUqEibEmlbP-1" source="WYYxrPqUGSUqEibEmlbP-79" target="WYYxrPqUGSUqEibEmlbP-77" edge="1">
          <mxGeometry width="50" height="50" relative="1" as="geometry">
            <mxPoint x="440" y="230" as="sourcePoint" />
            <mxPoint x="490" y="180" as="targetPoint" />
            <Array as="points">
              <mxPoint x="666" y="350" />
            </Array>
          </mxGeometry>
        </mxCell>
        <mxCell id="WYYxrPqUGSUqEibEmlbP-87" value="order" style="edgeLabel;html=1;align=center;verticalAlign=middle;resizable=0;points=[];" parent="WYYxrPqUGSUqEibEmlbP-86" vertex="1" connectable="0">
          <mxGeometry x="0.3129" y="-1" relative="1" as="geometry">
            <mxPoint as="offset" />
          </mxGeometry>
        </mxCell>
        <mxCell id="WYYxrPqUGSUqEibEmlbP-88" value="0..*" style="edgeLabel;html=1;align=center;verticalAlign=middle;resizable=0;points=[];" parent="WYYxrPqUGSUqEibEmlbP-86" vertex="1" connectable="0">
          <mxGeometry x="-0.8722" y="1" relative="1" as="geometry">
            <mxPoint as="offset" />
          </mxGeometry>
        </mxCell>
        <mxCell id="WYYxrPqUGSUqEibEmlbP-89" value="1..*" style="edgeLabel;html=1;align=center;verticalAlign=middle;resizable=0;points=[];" parent="WYYxrPqUGSUqEibEmlbP-86" vertex="1" connectable="0">
          <mxGeometry x="0.8959" y="2" relative="1" as="geometry">
            <mxPoint as="offset" />
          </mxGeometry>
        </mxCell>
        <mxCell id="WYYxrPqUGSUqEibEmlbP-90" value="convert" style="endArrow=none;html=1;rounded=0;entryX=-0.006;entryY=0.763;entryDx=0;entryDy=0;entryPerimeter=0;exitX=0.988;exitY=0.203;exitDx=0;exitDy=0;exitPerimeter=0;" parent="WYYxrPqUGSUqEibEmlbP-1" source="WYYxrPqUGSUqEibEmlbP-12" target="WYYxrPqUGSUqEibEmlbP-81" edge="1">
          <mxGeometry width="50" height="50" relative="1" as="geometry">
            <mxPoint x="440" y="640" as="sourcePoint" />
            <mxPoint x="490" y="590" as="targetPoint" />
          </mxGeometry>
        </mxCell>
        <mxCell id="WYYxrPqUGSUqEibEmlbP-91" value="0..*" style="edgeLabel;html=1;align=center;verticalAlign=middle;resizable=0;points=[];" parent="WYYxrPqUGSUqEibEmlbP-90" vertex="1" connectable="0">
          <mxGeometry x="-0.9143" relative="1" as="geometry">
            <mxPoint as="offset" />
          </mxGeometry>
        </mxCell>
        <mxCell id="WYYxrPqUGSUqEibEmlbP-92" value="1..*" style="edgeLabel;html=1;align=center;verticalAlign=middle;resizable=0;points=[];" parent="WYYxrPqUGSUqEibEmlbP-90" vertex="1" connectable="0">
          <mxGeometry x="0.9477" y="2" relative="1" as="geometry">
            <mxPoint as="offset" />
          </mxGeometry>
        </mxCell>
        <mxCell id="WYYxrPqUGSUqEibEmlbP-93" value="" style="endArrow=none;html=1;rounded=0;entryX=0;entryY=0.5;entryDx=0;entryDy=0;exitX=0.004;exitY=0.012;exitDx=0;exitDy=0;exitPerimeter=0;" parent="WYYxrPqUGSUqEibEmlbP-1" source="WYYxrPqUGSUqEibEmlbP-21" target="WYYxrPqUGSUqEibEmlbP-18" edge="1">
          <mxGeometry width="50" height="50" relative="1" as="geometry">
            <mxPoint x="639.0500000000002" y="880.0540000000001" as="sourcePoint" />
            <mxPoint x="490" y="600" as="targetPoint" />
            <Array as="points">
              <mxPoint x="580" y="822" />
              <mxPoint x="520" y="822" />
              <mxPoint x="520" y="732" />
              <mxPoint x="520" y="710" />
            </Array>
          </mxGeometry>
        </mxCell>
        <mxCell id="WYYxrPqUGSUqEibEmlbP-94" value="payment" style="edgeLabel;html=1;align=center;verticalAlign=middle;resizable=0;points=[];" parent="WYYxrPqUGSUqEibEmlbP-93" vertex="1" connectable="0">
          <mxGeometry x="0.0575" y="1" relative="1" as="geometry">
            <mxPoint as="offset" />
          </mxGeometry>
        </mxCell>
        <mxCell id="WYYxrPqUGSUqEibEmlbP-95" value="0..*" style="edgeLabel;html=1;align=center;verticalAlign=middle;resizable=0;points=[];" parent="WYYxrPqUGSUqEibEmlbP-93" vertex="1" connectable="0">
          <mxGeometry x="-0.8413" y="-2" relative="1" as="geometry">
            <mxPoint as="offset" />
          </mxGeometry>
        </mxCell>
        <mxCell id="WYYxrPqUGSUqEibEmlbP-96" value="1..*" style="edgeLabel;html=1;align=center;verticalAlign=middle;resizable=0;points=[];" parent="WYYxrPqUGSUqEibEmlbP-93" vertex="1" connectable="0">
          <mxGeometry x="0.8747" y="-1" relative="1" as="geometry">
            <mxPoint as="offset" />
          </mxGeometry>
        </mxCell>
        <mxCell id="WYYxrPqUGSUqEibEmlbP-97" value="" style="endArrow=none;html=1;rounded=0;entryX=0;entryY=0.5;entryDx=0;entryDy=0;exitX=0.035;exitY=1.077;exitDx=0;exitDy=0;exitPerimeter=0;" parent="WYYxrPqUGSUqEibEmlbP-1" source="WYYxrPqUGSUqEibEmlbP-104" target="WYYxrPqUGSUqEibEmlbP-33" edge="1">
          <mxGeometry width="50" height="50" relative="1" as="geometry">
            <mxPoint x="440" y="650" as="sourcePoint" />
            <mxPoint x="490" y="600" as="targetPoint" />
          </mxGeometry>
        </mxCell>
        <mxCell id="WYYxrPqUGSUqEibEmlbP-98" value="rate" style="edgeLabel;html=1;align=center;verticalAlign=middle;resizable=0;points=[];" parent="WYYxrPqUGSUqEibEmlbP-97" vertex="1" connectable="0">
          <mxGeometry x="0.1383" y="1" relative="1" as="geometry">
            <mxPoint as="offset" />
          </mxGeometry>
        </mxCell>
        <mxCell id="WYYxrPqUGSUqEibEmlbP-99" value="1..*" style="edgeLabel;html=1;align=center;verticalAlign=middle;resizable=0;points=[];" parent="WYYxrPqUGSUqEibEmlbP-97" vertex="1" connectable="0">
          <mxGeometry x="0.8215" y="2" relative="1" as="geometry">
            <mxPoint as="offset" />
          </mxGeometry>
        </mxCell>
        <mxCell id="WYYxrPqUGSUqEibEmlbP-100" value="0..*" style="edgeLabel;html=1;align=center;verticalAlign=middle;resizable=0;points=[];" parent="WYYxrPqUGSUqEibEmlbP-97" vertex="1" connectable="0">
          <mxGeometry x="-0.7905" y="1" relative="1" as="geometry">
            <mxPoint as="offset" />
          </mxGeometry>
        </mxCell>
        <mxCell id="WYYxrPqUGSUqEibEmlbP-101" value="" style="endArrow=none;html=1;rounded=0;exitX=0.625;exitY=1.099;exitDx=0;exitDy=0;exitPerimeter=0;entryX=0;entryY=0.5;entryDx=0;entryDy=0;" parent="WYYxrPqUGSUqEibEmlbP-1" source="WYYxrPqUGSUqEibEmlbP-14" target="WYYxrPqUGSUqEibEmlbP-42" edge="1">
          <mxGeometry width="50" height="50" relative="1" as="geometry">
            <mxPoint x="260" y="560" as="sourcePoint" />
            <mxPoint x="310" y="510" as="targetPoint" />
            <Array as="points">
              <mxPoint x="240" y="830" />
              <mxPoint x="30" y="830" />
              <mxPoint x="30" y="240" />
            </Array>
          </mxGeometry>
        </mxCell>
        <mxCell id="WYYxrPqUGSUqEibEmlbP-102" value="shopping" style="edgeLabel;html=1;align=center;verticalAlign=middle;resizable=0;points=[];" parent="WYYxrPqUGSUqEibEmlbP-101" vertex="1" connectable="0">
          <mxGeometry x="-0.1687" relative="1" as="geometry">
            <mxPoint as="offset" />
          </mxGeometry>
        </mxCell>
        <mxCell id="WYYxrPqUGSUqEibEmlbP-103" value="0..*" style="edgeLabel;html=1;align=center;verticalAlign=middle;resizable=0;points=[];" parent="WYYxrPqUGSUqEibEmlbP-101" vertex="1" connectable="0">
          <mxGeometry x="0.972" y="-2" relative="1" as="geometry">
            <mxPoint as="offset" />
          </mxGeometry>
        </mxCell>
        <mxCell id="WYYxrPqUGSUqEibEmlbP-104" value="-rate()" style="text;strokeColor=none;fillColor=none;align=left;verticalAlign=top;spacingLeft=4;spacingRight=4;overflow=hidden;rotatable=0;points=[[0,0.5],[1,0.5]];portConstraint=eastwest;" parent="WYYxrPqUGSUqEibEmlbP-1" vertex="1">
          <mxGeometry x="636.45" y="850" width="100" height="26" as="geometry" />
        </mxCell>
      </root>
    </mxGraphModel>
  </diagram>
</mxfile>
